<?xml version="1.0" encoding="UTF-8" standalone="no"?>
<!-- Created with Inkscape (http://www.inkscape.org/) -->

<svg
   xmlns:dc="http://purl.org/dc/elements/1.1/"
   xmlns:cc="http://creativecommons.org/ns#"
   xmlns:rdf="http://www.w3.org/1999/02/22-rdf-syntax-ns#"
   xmlns:svg="http://www.w3.org/2000/svg"
   xmlns="http://www.w3.org/2000/svg"
   xmlns:xlink="http://www.w3.org/1999/xlink"
   xmlns:sodipodi="http://sodipodi.sourceforge.net/DTD/sodipodi-0.dtd"
   xmlns:inkscape="http://www.inkscape.org/namespaces/inkscape"
   width="744.09448819"
   height="1052.3622047"
   id="svg2"
   version="1.1"
   inkscape:version="0.48.2 r9819"
   sodipodi:docname="fire.svg"
   inkscape:export-filename="/home/kazjote/projects/burning_ideas/images/fire.png"
   inkscape:export-xdpi="7.5861468"
   inkscape:export-ydpi="7.5861468">
  <defs
     id="defs4">
    <linearGradient
       id="linearGradient2993">
      <stop
         style="stop-color:#c87137;stop-opacity:1;"
         offset="0"
         id="stop2995" />
      <stop
         style="stop-color:#f9f0e9;stop-opacity:1;"
         offset="1"
         id="stop2997" />
    </linearGradient>
    <linearGradient
       inkscape:collect="always"
       xlink:href="#linearGradient2993"
       id="linearGradient2999"
       x1="533.01495"
       y1="477.7865"
       x2="446.62405"
       y2="489.70587"
       gradientUnits="userSpaceOnUse"
       gradientTransform="matrix(0.65901333,0.58816848,-0.81693267,0.78830872,526.95913,-289.33205)" />
    <linearGradient
       inkscape:collect="always"
       xlink:href="#linearGradient2993"
       id="linearGradient3157"
       gradientUnits="userSpaceOnUse"
       gradientTransform="matrix(0.65901333,0.58816848,-0.81693267,0.78830872,526.95913,-289.33205)"
       x1="533.01495"
       y1="477.7865"
       x2="446.62405"
       y2="489.70587" />
    <linearGradient
       inkscape:collect="always"
       xlink:href="#linearGradient2993"
       id="linearGradient3160"
       gradientUnits="userSpaceOnUse"
       gradientTransform="matrix(0.65901333,0.58816848,-0.81693267,0.78830872,526.95913,-289.33205)"
       x1="533.01495"
       y1="477.7865"
       x2="446.62405"
       y2="489.70587" />
    <linearGradient
       inkscape:collect="always"
       xlink:href="#linearGradient2993"
       id="linearGradient3163"
       gradientUnits="userSpaceOnUse"
       gradientTransform="matrix(0.65901333,0.58816848,-0.81693267,0.78830872,526.95913,-289.33205)"
       x1="533.01495"
       y1="477.7865"
       x2="446.62405"
       y2="489.70587" />
  </defs>
  <sodipodi:namedview
     id="base"
     pagecolor="#ffffff"
     bordercolor="#666666"
     borderopacity="1.0"
     inkscape:pageopacity="0.0"
     inkscape:pageshadow="2"
     inkscape:zoom="0.98994949"
     inkscape:cx="522.7309"
     inkscape:cy="652.8718"
     inkscape:document-units="px"
     inkscape:current-layer="layer1"
     showgrid="false"
     inkscape:window-width="1680"
     inkscape:window-height="1026"
     inkscape:window-x="0"
     inkscape:window-y="24"
     inkscape:window-maximized="1" />
  <metadata
     id="metadata7">
    <rdf:RDF>
      <cc:Work
         rdf:about="">
        <dc:format>image/svg+xml</dc:format>
        <dc:type
           rdf:resource="http://purl.org/dc/dcmitype/StillImage" />
        <dc:title></dc:title>
      </cc:Work>
    </rdf:RDF>
  </metadata>
  <g
     inkscape:label="Layer 1"
     inkscape:groupmode="layer"
     id="layer1">
    <path
       style="fill:#ff0000;stroke:none;stroke-width:0.70066750000000000px;stroke-linecap:butt;stroke-linejoin:miter;stroke-opacity:1"
       d="m 492.51064,386.01525 -76.05908,34.05483 c 0,0 -57.3933,-59.41183 -63.72437,-117.02694 -6.33107,-57.61511 8.05891,-140.46012 8.05891,-140.46012 0,0 17.59625,15.80604 22.32411,36.28046 4.72787,20.47441 28.94306,77.1295 28.94306,77.1295 0,0 7.40062,-51.65759 -6.98868,-90.66091 -12.42204,-33.67089 -15.04707,-47.6795 -15.04707,-47.6795 0,0 55.33776,39.9144 62.57344,74.42782 7.23568,34.51341 6.57786,38.02211 6.57786,38.02211 0,0 -4.44012,-12.87085 5.83823,-37.23203 10.27838,-24.36122 3.20714,-59.75181 3.20714,-59.75181 0,0 53.69307,73.05582 47.56688,139.23876 -6.12619,66.18298 -23.27043,93.65783 -23.27043,93.65783 z"
       id="path3100"
       inkscape:connector-curvature="0"
       sodipodi:nodetypes="ccscscscscscsc"
       inkscape:export-filename="/home/kazjote/projects/burning_ideas/images/fire.png"
       inkscape:export-xdpi="7.5605531"
       inkscape:export-ydpi="7.5605531" />
    <path
       style="fill:#ffaaaa;stroke:none;stroke-width:0.70066750000000000px;stroke-linecap:butt;stroke-linejoin:miter;stroke-opacity:1"
       d="m 480.02677,206.35708 c -4.99413,16.19702 -10.16682,32.85379 -11.31352,50.63756 -1.96091,10.34946 -9.40229,20.00746 -15.86533,15.07693 -6.57561,-4.02136 -8.94259,-16.38415 -8.05693,-27.25994 -1.21024,-19.39101 -6.52832,-39.50003 -17.5326,-48.09065 -3.39051,-0.58241 -5.15252,6.68125 -3.5193,10.57278 5.81597,37.70397 0.47618,78.37959 -6.72756,116.45363 -17.65689,-40.16327 -34.33036,-81.45568 -48.95723,-124.95224 -4.37341,38.87274 -8.61476,80.5413 0.70778,116.56228 10.42027,34.03156 29.77449,57.25288 47.84423,80.24126 3.78892,5.52858 9.5005,0.22153 13.89425,-1.88146 18.51371,-7.63778 36.98861,-16.37023 55.43568,-24.85101 13.736,-32.80126 21.56335,-74.39047 15.1549,-111.08195 -4.18597,-20.44405 -12.00862,-37.81567 -20.28215,-54.18581 -0.26077,0.91953 -0.52147,1.83908 -0.78222,2.75862 z"
       id="path3102"
       inkscape:connector-curvature="0"
       inkscape:export-filename="/home/kazjote/projects/burning_ideas/images/fire.png"
       inkscape:export-xdpi="7.5605531"
       inkscape:export-ydpi="7.5605531" />
    <path
       style="fill:#ffffff;stroke:none;stroke-width:0.70066750000000000px;stroke-linecap:butt;stroke-linejoin:miter;stroke-opacity:1"
       d="m 482.13285,230.93288 c -3.68406,13.75799 -4.09632,29.32808 -9.03938,42.2772 -7.16982,15.39954 -22.63322,19.53233 -30.33403,5.93078 -6.66365,-10.05909 -7.2142,-26.1716 -7.69839,-40.45147 0.30404,35.37002 -6.25573,70.74979 -12.55008,105.10416 -1.59415,5.16838 -6.52749,5.85648 -7.74062,0.41074 -14.73865,-32.96188 -29.14156,-67.87493 -42.00657,-102.01993 -2.0841,29.82314 -0.50347,61.9238 11.26364,84.70914 10.50784,22.45265 24.11568,40.50931 38.61053,56.17824 7.63413,-3.40391 15.13119,-7.60665 22.83558,-10.19435 11.76018,-5.2199 23.49377,-10.67841 35.22651,-16.13215 12.34178,-31.5003 18.66438,-72.27575 9.13135,-104.92255 -2.21009,-7.33688 -4.81247,-14.70065 -7.69854,-20.88981 z"
       id="path3138"
       inkscape:connector-curvature="0"
       inkscape:export-filename="/home/kazjote/projects/burning_ideas/images/fire.png"
       inkscape:export-xdpi="7.5605531"
       inkscape:export-ydpi="7.5605531" />
    <path
       style="fill:url(#linearGradient3163);fill-opacity:1;stroke:none;stroke-opacity:1"
       d="M 468.78125 339.21875 C 455.16607 339.57808 440.56449 345.52273 429.15625 356.53125 C 408.87493 376.10195 406.31015 404.3355 423.40625 419.59375 C 440.50235 434.852 470.81243 431.35195 491.09375 411.78125 C 511.37507 392.21055 513.93985 363.977 496.84375 348.71875 C 489.3642 342.04327 479.37083 338.93927 468.78125 339.21875 z "
       id="path2991"
       inkscape:export-filename="/home/kazjote/projects/burning_ideas/images/fire.png"
       inkscape:export-xdpi="7.5605531"
       inkscape:export-ydpi="7.5605531" />
    <path
       style="fill:#ff7f2a;stroke:none;stroke-width:1px;stroke-linecap:butt;stroke-linejoin:miter;stroke-opacity:1"
       d="m 428.30468,384.65135 -279.81226,135.36044 21.21321,18.18275 272.74118,-138.3909 z"
       id="path2985"
       inkscape:connector-curvature="0"
       inkscape:export-filename="/home/kazjote/projects/burning_ideas/images/fire.png"
       inkscape:export-xdpi="7.5605531"
       inkscape:export-ydpi="7.5605531" />
    <path
       style="fill:#ff6600;stroke:none;stroke-width:1px;stroke-linecap:butt;stroke-linejoin:miter;stroke-opacity:1"
       d="m 442.44681,399.80364 -3.03045,21.2132 -271.73103,139.40106 1.01015,-23.23352 z"
       id="path2987"
       inkscape:connector-curvature="0"
       sodipodi:nodetypes="ccccc"
       inkscape:export-filename="/home/kazjote/projects/burning_ideas/images/fire.png"
       inkscape:export-xdpi="7.5605531"
       inkscape:export-ydpi="7.5605531" />
    <path
       style="fill:#ff7f2a;stroke:none;stroke-width:1px;stroke-linecap:butt;stroke-linejoin:miter;stroke-opacity:1"
       d="m 167.68532,558.39759 -18.18274,-14.14214 -1.01016,-24.24366 22.22336,19.1929 z"
       id="path2989"
       inkscape:connector-curvature="0"
       inkscape:export-filename="/home/kazjote/projects/burning_ideas/images/fire.png"
       inkscape:export-xdpi="7.5605531"
       inkscape:export-ydpi="7.5605531" />
  </g>
</svg>
